<?xml version="1.0" encoding="UTF-8" standalone="no"?>
<!-- Created with Inkscape (http://www.inkscape.org/) -->

<svg
   width="967.55908"
   height="967.55908"
   viewBox="0 0 255.99998 255.99998"
   version="1.1"
   id="svg1"
   xml:space="preserve"
   inkscape:version="1.3 (0e150ed6c4, 2023-07-21)"
   sodipodi:docname="keywarden.svg"
   xmlns:inkscape="http://www.inkscape.org/namespaces/inkscape"
   xmlns:sodipodi="http://sodipodi.sourceforge.net/DTD/sodipodi-0.dtd"
   xmlns:xlink="http://www.w3.org/1999/xlink"
   xmlns="http://www.w3.org/2000/svg"
   xmlns:svg="http://www.w3.org/2000/svg"
   xmlns:rdf="http://www.w3.org/1999/02/22-rdf-syntax-ns#"
   xmlns:cc="http://creativecommons.org/ns#"
   xmlns:dc="http://purl.org/dc/elements/1.1/"><title
     id="title2">KeyWarden Logo</title><sodipodi:namedview
     id="namedview1"
     pagecolor="#4d4d4d"
     bordercolor="#000000"
     borderopacity="0.25"
     inkscape:showpageshadow="false"
     inkscape:pageopacity="0.0"
     inkscape:pagecheckerboard="false"
     inkscape:deskcolor="#d1d1d1"
     inkscape:document-units="mm"
     inkscape:zoom="0.32"
     inkscape:cx="450"
     inkscape:cy="228.125"
     inkscape:window-width="1344"
     inkscape:window-height="1152"
     inkscape:window-x="480"
     inkscape:window-y="0"
     inkscape:window-maximized="0"
     inkscape:current-layer="layer1"
     showborder="false"
     inkscape:clip-to-page="false" /><defs
     id="defs1"><color-profile
       name="sRGB-IEC61966-2.1"
       xlink:href="../../../../../Windows/system32/spool/drivers/color/sRGB%20Color%20Space%20Profile.icm"
       id="color-profile1" /><linearGradient
       id="linearGradient1"
       inkscape:collect="always"><stop
         style="stop-color:#5d0098;stop-opacity:0.69461077;"
         offset="0"
         id="stop1" /><stop
         style="stop-color:#612583;stop-opacity:1;"
         offset="1"
         id="stop2" /></linearGradient><linearGradient
       id="linearGradient3"
       inkscape:collect="always"><stop
         style="stop-color:#eecff5;stop-opacity:1;"
         offset="0"
         id="stop3" /><stop
         style="stop-color:#ebe8f4;stop-opacity:1;"
         offset="1"
         id="stop4" /></linearGradient><linearGradient
       inkscape:collect="always"
       xlink:href="#linearGradient3"
       id="linearGradient4"
       x1="11.852592"
       y1="128"
       x2="244.14742"
       y2="128"
       gradientUnits="userSpaceOnUse" /><linearGradient
       inkscape:collect="always"
       xlink:href="#linearGradient1"
       id="linearGradient2"
       x1="23.426058"
       y1="128"
       x2="232.57394"
       y2="128"
       gradientUnits="userSpaceOnUse" /></defs><g
     inkscape:label="Layer 1"
     inkscape:groupmode="layer"
     id="layer1"><ellipse
       style="fill:url(#linearGradient4);fill-opacity:1;stroke-width:0.264583"
       id="path3"
       cx="128"
       cy="128"
       rx="116.14741"
       ry="117.94814"
       inkscape:label="container" /><path
       d="m 165.54191,199.36404 c 36.96154,0 67.03204,-32.01423 67.03204,-71.36403 0,-39.349807 -30.0705,-71.364042 -67.03204,-71.364042 -31.89115,0 -58.64952,23.834734 -65.39107,55.649662 H 38.186671 c -8.139081,0 -14.760613,7.04939 -14.760613,15.71438 0,8.66498 6.621532,15.71436 14.760613,15.71436 h 0.524895 v 13.61329 c 0,6.03825 4.377096,10.95077 9.756748,10.95077 5.380337,0 9.757433,-1.81193 9.757433,-16.32512 v -0.42344 c 0,-2.01274 1.53812,-3.65026 3.428714,-3.65026 h 1.280895 c 1.890596,0 3.42872,1.63752 3.42872,3.65026 v 0.42344 c 0,12.34278 2.930158,16.22177 9.757434,16.32512 5.379723,0.0814 9.757433,-4.91252 9.757433,-10.95077 v -13.61329 h 14.271207 c 6.74224,31.81494 33.49992,55.64967 65.39176,55.64967 z"
       id="path1"
       sodipodi:nodetypes="ssscssscssssssssssccs"
       style="fill:url(#linearGradient2);stroke-width:0.707553"
       inkscape:label="key" /><path
       d="m 151.87327,182.22121 c -0.85426,0 -1.70853,-0.36738 -2.29993,-1.10207 -5.71698,-6.39193 -8.80547,-10.50628 -13.20819,-19.39619 -4.53414,-9.03686 -6.89979,-20.05744 -6.89979,-31.8862 0,-21.82069 16.69093,-39.600561 37.19318,-39.600561 20.50225,0 37.19318,17.779871 37.19318,39.600561 0,2.05719 -1.44567,3.67353 -3.28562,3.67353 -1.83995,0 -3.28561,-1.61634 -3.28561,-3.67353 0,-17.77984 -13.73387,-32.253511 -30.62195,-32.253511 -16.88807,0 -30.62195,14.473671 -30.62195,32.253511 0,10.57976 2.10279,20.35133 6.11124,28.28614 4.20559,8.4491 7.09694,12.04915 12.1568,17.77984 1.24853,1.46941 1.24853,3.74701 0,5.21641 -0.72285,0.73469 -1.57711,1.10207 -2.43136,1.10207 z m 47.11574,-13.59205 c -7.81977,0 -14.71957,-2.20411 -20.37083,-6.53887 -9.79114,-7.42051 -15.63953,-19.46967 -15.63953,-32.25354 0,-2.05716 1.44567,-3.67352 3.28561,-3.67352 1.83995,0 3.28563,1.61636 3.28563,3.67352 0,10.35935 4.73129,20.13092 12.7482,26.1555 4.66556,3.52657 10.11968,5.2164 16.69092,5.2164 1.57709,0 4.20558,-0.22041 6.83408,-0.73472 1.77423,-0.36733 3.48276,0.95513 3.81131,3.01229 0.32857,1.98372 -0.85426,3.89394 -2.69421,4.26129 -3.7456,0.80817 -7.03121,0.88165 -7.95118,0.88165 z m -13.20818,15.13491 c -0.26286,0 -0.59141,-0.0734 -0.85426,-0.14693 -10.44825,-3.23271 -17.28234,-7.56746 -24.44499,-15.4288 -9.19972,-10.21239 -14.25957,-23.80443 -14.25957,-38.35159 0,-11.90219 9.06831,-21.60028 20.2394,-21.60028 11.1711,0 20.23939,9.69809 20.23939,21.60028 0,7.86134 6.11125,14.25328 13.66817,14.25328 7.55691,0 13.66817,-6.39194 13.66817,-14.25328 0,-27.69834 -21.35652,-50.18029 -47.64145,-50.18029 -18.66231,0 -35.7475,11.608329 -43.43585,29.60858 -2.56278,5.9511 -3.87702,12.9308 -3.87702,20.57171 0,5.73071 0.45998,14.76757 4.40271,26.52285 0.65713,1.91023 -0.19713,4.04088 -1.90565,4.70211 -1.70852,0.7347 -3.61418,-0.29388 -4.20559,-2.13064 -3.2199,-9.62463 -4.797,-19.17579 -4.797,-29.09432 0,-8.81644 1.51139,-16.82471 4.46844,-23.80441 8.73972,-20.498251 28.12487,-33.796405 49.34996,-33.796405 29.89911,0 54.21268,25.788124 54.21268,57.527355 0,11.90222 -9.0683,21.60033 -20.2394,21.60033 -11.1711,0 -20.2394,-9.69811 -20.2394,-21.60033 0,-7.86133 -6.11125,-14.25326 -13.66816,-14.25326 -7.55693,0 -13.66818,6.39193 -13.66818,14.25326 0,12.56347 4.33702,24.31873 12.28822,33.13518 6.24266,6.90623 12.22248,10.72667 21.48793,13.59203 1.77424,0.51429 2.75991,2.57146 2.29993,4.48169 -0.32856,1.68983 -1.70852,2.79188 -3.08848,2.79188 z"
       id="path2"
       inkscape:label="print"
       style="fill:#f5d9fd;fill-opacity:1;fill-rule:nonzero;stroke:#f5d9fd;stroke-width:0.52916667;stroke-dasharray:none;stroke-opacity:1"
       sodipodi:nodetypes="sccssssssscccsscssscscccssccsssssscscccscsssssscccs" /></g><metadata
     id="metadata2"><rdf:RDF><cc:Work
         rdf:about=""><dc:title>KeyWarden Logo</dc:title><cc:license
           rdf:resource="http://creativecommons.org/licenses/by/4.0/" /></cc:Work><cc:License
         rdf:about="http://creativecommons.org/licenses/by/4.0/"><cc:permits
           rdf:resource="http://creativecommons.org/ns#Reproduction" /><cc:permits
           rdf:resource="http://creativecommons.org/ns#Distribution" /><cc:requires
           rdf:resource="http://creativecommons.org/ns#Notice" /><cc:requires
           rdf:resource="http://creativecommons.org/ns#Attribution" /><cc:permits
           rdf:resource="http://creativecommons.org/ns#DerivativeWorks" /></cc:License></rdf:RDF></metadata></svg>
